<svg xmlns="http://www.w3.org/2000/svg" version="1.1" xmlns:xlink="http://www.w3.org/1999/xlink" xmlns:svgjs="http://svgjs.dev/svgjs" width="128" height="128" viewBox="0 0 128 128"><g transform="matrix(0.8046875,0,0,0.8046875,12.333870967741937,12.333870967741937)"><svg viewBox="0 0 155 155" data-background-color="#ed2647" preserveAspectRatio="xMidYMid meet" height="128" width="128" xmlns="http://www.w3.org/2000/svg" xmlns:xlink="http://www.w3.org/1999/xlink"><g id="tight-bounds" transform="matrix(1,0,0,1,0.25,0.25)"><svg viewBox="0 0 154.5 154.5" height="154.5" width="154.5"><g><svg></svg></g><g><svg viewBox="0 0 154.5 154.5" height="154.5" width="154.5"><mask id="SvgjsMask2973"><rect width="154.5" height="154.5" fill="white"></rect><g transform="matrix(1,0,0,1,29.509500000000003,45.95658875739646)" id="clone"><svg viewBox="0 0 95.481 62.58682248520709" height="62.58682248520709" width="95.481"><g><svg viewBox="0 0 95.481 62.58682248520709" height="62.58682248520709" width="95.481"><g><svg viewBox="0 0 95.481 62.58682248520709" height="62.58682248520709" width="95.481"><g id="SvgjsG2972"><svg viewBox="0 0 95.481 62.58682248520709" height="62.58682248520709" width="95.481" id="SvgjsSvg2971"><g><svg viewBox="0 0 95.481 62.58682248520709" height="62.58682248520709" width="95.481"><g transform="matrix(1,0,0,1,0,0)"><svg width="95.481" viewBox="-1.6 -46.85 77.03999999999999 50.85" height="62.58682248520709" data-palette-color="#ffbbba"><path d="M1.9 0L1.9-42.95 15.1-42.95Q18.25-42.95 19.98-41.53 21.7-40.1 22.3-37.52 22.9-34.95 22.9-30.95L22.9-30.95Q22.9-27.3 21.95-25.25 21-23.2 18.65-22.4L18.65-22.4Q20.6-22 21.48-20.45 22.35-18.9 22.35-16.25L22.35-16.25 22.25 0 13.85 0 13.85-16.8Q13.85-18.6 13.15-19.1 12.45-19.6 10.6-19.6L10.6-19.6 10.6 0 1.9 0ZM10.65-27.05L12.7-27.05Q14.5-27.05 14.5-30.95L14.5-30.95Q14.5-32.65 14.35-33.5 14.2-34.35 13.8-34.68 13.4-35 12.65-35L12.65-35 10.65-35 10.65-27.05ZM32.55 0.5Q28.7 0.5 26.7-2.25 24.7-5 24.7-9.4L24.7-9.4Q24.7-14.3 26.1-17.28 27.5-20.25 30.5-22.5L30.5-22.5Q28.05-27.3 28.05-30.8L28.05-30.8Q28.05-34.45 30.42-36.52 32.8-38.6 36.55-38.6L36.55-38.6Q40.25-38.6 42.62-36.63 45-34.65 45-31.1L45-31.1Q45-25.9 39.25-21.35L39.25-21.35 40.8-17.7Q42.2-21.4 45-23.45L45-23.45 48.4-18.15Q45.45-15.85 43.6-10.55L43.6-10.55 47.95 0 39.65 0 38.75-2.35Q37.7-1.1 36.07-0.3 34.45 0.5 32.55 0.5L32.55 0.5ZM37.05-27.1L37.45-27.55Q37.95-28.1 38.35-29.13 38.75-30.15 38.75-31.1L38.75-31.1Q38.75-32.6 37.3-32.6L37.3-32.6Q36.7-32.6 36.35-32.18 36-31.75 36-31.1L36-31.1Q36-29.8 37.05-27.1L37.05-27.1ZM33.9-5.75Q34.85-5.75 35.5-6.48 36.15-7.2 36.35-8.15L36.35-8.15 33.4-15.25 33.1-14.8Q32.7-14.2 32.45-12.9 32.2-11.6 32.2-10.35L32.2-10.35 32.2-10.1Q32.2-8.15 32.5-6.95 32.8-5.75 33.9-5.75L33.9-5.75ZM59.84 0.4Q55.2 0.4 52.92-2.88 50.64-6.15 50.64-12.8L50.64-12.8 50.64-31.3Q50.64-37.25 53.3-40.3 55.95-43.35 61.2-43.35L61.2-43.35Q65.44-43.35 67.8-41.65 70.14-39.95 71.05-36.7 71.94-33.45 71.94-28.35L71.94-28.35 63.55-28.35 63.55-32.2Q63.55-33.75 63.12-34.6 62.7-35.45 61.59-35.45L61.59-35.45Q59.14-35.45 59.14-32.25L59.14-32.25 59.14-11.45Q59.14-9.5 59.64-8.5 60.14-7.5 61.39-7.5L61.39-7.5Q62.64-7.5 63.14-8.5 63.64-9.5 63.64-11.45L63.64-11.45 63.64-17.6 61.34-17.6 61.34-25 71.84-25 71.84 0 68.39 0 66.94-3.6Q64.64 0.4 59.84 0.4L59.84 0.4Z" opacity="1" transform="matrix(1,0,0,1,0,0)" fill="black" class="wordmark-text-0" id="SvgjsPath2970" stroke-width="6" stroke="black" stroke-linejoin="round"></path></svg></g></svg></g></svg></g></svg></g></svg></g></svg></g></mask><g transform="matrix(1,0,0,1,29.509500000000003,45.95658875739646)"><svg viewBox="0 0 95.481 62.58682248520709" height="62.58682248520709" width="95.481"><g><svg viewBox="0 0 95.481 62.58682248520709" height="62.58682248520709" width="95.481"><g><svg viewBox="0 0 95.481 62.58682248520709" height="62.58682248520709" width="95.481"><g id="textblocktransform"><svg viewBox="0 0 95.481 62.58682248520709" height="62.58682248520709" width="95.481" id="textblock"><g><svg viewBox="0 0 95.481 62.58682248520709" height="62.58682248520709" width="95.481"><g transform="matrix(1,0,0,1,0,0)"><svg width="95.481" viewBox="-1.6 -46.85 77.03999999999999 50.85" height="62.58682248520709" data-palette-color="#ffbbba"><path d="M1.9 0L1.9-42.95 15.1-42.95Q18.25-42.95 19.98-41.53 21.7-40.1 22.3-37.52 22.9-34.95 22.9-30.95L22.9-30.95Q22.9-27.3 21.95-25.25 21-23.2 18.65-22.4L18.65-22.4Q20.6-22 21.48-20.45 22.35-18.9 22.35-16.25L22.35-16.25 22.25 0 13.85 0 13.85-16.8Q13.85-18.6 13.15-19.1 12.45-19.6 10.6-19.6L10.6-19.6 10.6 0 1.9 0ZM10.65-27.05L12.7-27.05Q14.5-27.05 14.5-30.95L14.5-30.95Q14.5-32.65 14.35-33.5 14.2-34.35 13.8-34.68 13.4-35 12.65-35L12.65-35 10.65-35 10.65-27.05ZM32.55 0.5Q28.7 0.5 26.7-2.25 24.7-5 24.7-9.4L24.7-9.4Q24.7-14.3 26.1-17.28 27.5-20.25 30.5-22.5L30.5-22.5Q28.05-27.3 28.05-30.8L28.05-30.8Q28.05-34.45 30.42-36.52 32.8-38.6 36.55-38.6L36.55-38.6Q40.25-38.6 42.62-36.63 45-34.65 45-31.1L45-31.1Q45-25.9 39.25-21.35L39.25-21.35 40.8-17.7Q42.2-21.4 45-23.45L45-23.45 48.4-18.15Q45.45-15.85 43.6-10.55L43.6-10.55 47.95 0 39.65 0 38.75-2.35Q37.7-1.1 36.07-0.3 34.45 0.5 32.55 0.5L32.55 0.5ZM37.05-27.1L37.45-27.55Q37.95-28.1 38.35-29.13 38.75-30.15 38.75-31.1L38.75-31.1Q38.75-32.6 37.3-32.6L37.3-32.6Q36.7-32.6 36.35-32.18 36-31.75 36-31.1L36-31.1Q36-29.8 37.05-27.1L37.05-27.1ZM33.9-5.75Q34.85-5.75 35.5-6.48 36.15-7.2 36.35-8.15L36.35-8.15 33.4-15.25 33.1-14.8Q32.7-14.2 32.45-12.9 32.2-11.6 32.2-10.35L32.2-10.35 32.2-10.1Q32.2-8.15 32.5-6.95 32.8-5.75 33.9-5.75L33.9-5.75ZM59.84 0.4Q55.2 0.4 52.92-2.88 50.64-6.15 50.64-12.8L50.64-12.8 50.64-31.3Q50.64-37.25 53.3-40.3 55.95-43.35 61.2-43.35L61.2-43.35Q65.44-43.35 67.8-41.65 70.14-39.95 71.05-36.7 71.94-33.45 71.94-28.35L71.94-28.35 63.55-28.35 63.55-32.2Q63.55-33.75 63.12-34.6 62.7-35.45 61.59-35.45L61.59-35.45Q59.14-35.45 59.14-32.25L59.14-32.25 59.14-11.45Q59.14-9.5 59.64-8.5 60.14-7.5 61.39-7.5L61.39-7.5Q62.64-7.5 63.14-8.5 63.64-9.5 63.64-11.45L63.64-11.45 63.64-17.6 61.34-17.6 61.34-25 71.84-25 71.84 0 68.39 0 66.94-3.6Q64.64 0.4 59.84 0.4L59.84 0.4Z" opacity="1" transform="matrix(1,0,0,1,0,0)" fill="#ffbbba" class="wordmark-text-0" data-fill-palette-color="primary" id="text-0"></path></svg></g></svg></g></svg></g></svg></g></svg></g></svg></g><g><path d="M0 154.5v-154.5h154.5v154.5zM149.535 149.535v-144.57h-144.57v144.57z" fill="#ff908b" fill-rule="nonzero" stroke="none" stroke-width="1" stroke-linecap="butt" stroke-linejoin="miter" stroke-miterlimit="10" stroke-dasharray="" stroke-dashoffset="0" font-family="none" font-weight="none" font-size="none" text-anchor="none" style="mix-blend-mode: normal" data-fill-palette-color="tertiary"></path></g></svg></g><defs></defs></svg><rect width="154.5" height="154.5" fill="none" stroke="none" visibility="hidden"></rect></g></svg></g></svg>